<svg xmlns="http://www.w3.org/2000/svg" width="800" height="800" viewBox="0 0 800 800">
  <rect width="800" height="800" fill="transparent"/>
  <g fill="#ffffff">
    <circle cx="42" cy="78" r="0.9" opacity="0.55"/>
    <circle cx="118" cy="32" r="0.6" opacity="0.4"/>
    <circle cx="195" cy="125" r="1.2" opacity="0.75"/>
    <circle cx="265" cy="50" r="0.7" opacity="0.45"/>
    <circle cx="340" cy="98" r="1.4" opacity="0.85"/>
    <circle cx="410" cy="20" r="0.8" opacity="0.5"/>
    <circle cx="486" cy="138" r="0.6" opacity="0.4"/>
    <circle cx="558" cy="60" r="1.1" opacity="0.7"/>
    <circle cx="630" cy="115" r="0.7" opacity="0.45"/>
    <circle cx="700" cy="38" r="1.3" opacity="0.8"/>
    <circle cx="765" cy="92" r="0.6" opacity="0.4"/>
    <circle cx="35" cy="190" r="0.7" opacity="0.45"/>
    <circle cx="135" cy="225" r="1.5" opacity="0.85"/>
    <circle cx="215" cy="180" r="0.6" opacity="0.4"/>
    <circle cx="298" cy="245" r="0.9" opacity="0.6"/>
    <circle cx="380" cy="195" r="0.7" opacity="0.45"/>
    <circle cx="455" cy="265" r="1.2" opacity="0.75"/>
    <circle cx="535" cy="210" r="0.6" opacity="0.4"/>
    <circle cx="615" cy="255" r="1.0" opacity="0.65"/>
    <circle cx="690" cy="200" r="0.8" opacity="0.5"/>
    <circle cx="765" cy="240" r="0.6" opacity="0.4"/>
    <circle cx="55" cy="340" r="1.3" opacity="0.8"/>
    <circle cx="148" cy="385" r="0.7" opacity="0.45"/>
    <circle cx="225" cy="320" r="0.9" opacity="0.6"/>
    <circle cx="310" cy="395" r="0.6" opacity="0.4"/>
    <circle cx="395" cy="345" r="1.1" opacity="0.7"/>
    <circle cx="475" cy="410" r="0.7" opacity="0.45"/>
    <circle cx="558" cy="365" r="0.6" opacity="0.4"/>
    <circle cx="640" cy="395" r="1.4" opacity="0.85"/>
    <circle cx="722" cy="335" r="0.8" opacity="0.5"/>
    <circle cx="60" cy="495" r="0.9" opacity="0.6"/>
    <circle cx="150" cy="535" r="0.6" opacity="0.4"/>
    <circle cx="240" cy="475" r="1.2" opacity="0.75"/>
    <circle cx="325" cy="555" r="0.7" opacity="0.45"/>
    <circle cx="405" cy="500" r="0.6" opacity="0.4"/>
    <circle cx="488" cy="558" r="1.0" opacity="0.65"/>
    <circle cx="565" cy="488" r="0.8" opacity="0.5"/>
    <circle cx="648" cy="540" r="0.6" opacity="0.4"/>
    <circle cx="730" cy="500" r="1.3" opacity="0.8"/>
    <circle cx="40" cy="640" r="0.7" opacity="0.45"/>
    <circle cx="125" cy="685" r="1.1" opacity="0.7"/>
    <circle cx="210" cy="625" r="0.6" opacity="0.4"/>
    <circle cx="295" cy="700" r="0.9" opacity="0.6"/>
    <circle cx="378" cy="650" r="0.7" opacity="0.45"/>
    <circle cx="460" cy="715" r="0.6" opacity="0.4"/>
    <circle cx="545" cy="660" r="1.4" opacity="0.85"/>
    <circle cx="625" cy="710" r="0.7" opacity="0.45"/>
    <circle cx="708" cy="638" r="0.6" opacity="0.4"/>
    <circle cx="775" cy="685" r="1.0" opacity="0.65"/>
    <circle cx="100" cy="765" r="0.6" opacity="0.4"/>
    <circle cx="265" cy="780" r="0.8" opacity="0.5"/>
    <circle cx="425" cy="755" r="0.7" opacity="0.45"/>
    <circle cx="600" cy="775" r="1.2" opacity="0.75"/>
    <circle cx="745" cy="765" r="0.6" opacity="0.4"/>
  </g>
</svg>
